<svg version="1.1" viewBox="0.0 0.0 324.249343832021 117.249343832021" fill="none" stroke="none" stroke-linecap="square" stroke-miterlimit="10" xmlns:xlink="http://www.w3.org/1999/xlink" xmlns="http://www.w3.org/2000/svg"><clipPath id="p.0"><path d="m0 0l324.24933 0l0 117.249344l-324.24933 0l0 -117.249344z" clip-rule="nonzero"/></clipPath><g clip-path="url(#p.0)"><path fill="#000000" fill-opacity="0.0" d="m0 0l324.24933 0l0 117.249344l-324.24933 0z" fill-rule="evenodd"/><path fill="#000000" fill-opacity="0.0" d="m-7.4986877 33.356956l329.6378 0l0 82.80315l-329.6378 0z" fill-rule="evenodd"/><path fill="#ffffff" d="m35.751312 112.567276q-7.28125 0 -13.109375 -3.359375q-5.828125 -3.359375 -9.234375 -9.1875q-3.40625 -5.84375 -3.5 -13.125l0 -44.046875q0 -1.671875 0.96875 -2.65625q0.984375 -0.984375 2.671875 -0.984375q1.578125 0 2.546875 0.984375q0.984375 0.984375 0.984375 2.65625l0 27.4375q3.09375 -4.390625 8.171875 -7.046875q5.09375 -2.65625 11.34375 -2.65625q7.1875 0 12.875 3.40625q5.6875 3.40625 9.0 9.296875q3.328125 5.875 3.328125 13.234375q0 7.46875 -3.40625 13.359375q-3.40625 5.875 -9.296875 9.28125q-5.875 3.40625 -13.34375 3.40625zm0 -6.53125q5.421875 0 9.703125 -2.5625q4.296875 -2.578125 6.765625 -6.953125q2.484375 -4.390625 2.484375 -10.0q0 -5.5 -2.484375 -9.921875q-2.46875 -4.4375 -6.765625 -6.953125q-4.28125 -2.53125 -9.703125 -2.53125q-5.3125 0 -9.609375 2.53125q-4.296875 2.515625 -6.71875 6.953125q-2.421875 4.421875 -2.421875 9.921875q0 5.609375 2.421875 10.0q2.421875 4.375 6.71875 6.953125q4.296875 2.5625 9.609375 2.5625zm63.279938 6.53125q-7.5625 0 -13.40625 -3.3125q-5.828125 -3.3125 -9.140625 -9.1875q-3.3125 -5.890625 -3.3125 -13.453125q0 -7.640625 3.125 -13.46875q3.140625 -5.84375 8.640625 -9.203125q5.5 -3.359375 12.6875 -3.359375q7.09375 0 12.359375 3.21875q5.28125 3.21875 8.171875 8.921875q2.90625 5.6875 2.90625 12.96875q0 1.484375 -0.9375 2.375q-0.9375 0.890625 -2.4375 0.890625l-39.65625 0l0 -5.984375l40.40625 0l-4.015625 2.90625q0.09375 -5.421875 -1.953125 -9.703125q-2.046875 -4.296875 -5.828125 -6.71875q-3.78125 -2.4375 -9.015625 -2.4375q-5.3125 0 -9.328125 2.53125q-4.015625 2.515625 -6.21875 6.953125q-2.1875 4.421875 -2.1875 10.109375q0 5.703125 2.46875 10.09375q2.484375 4.375 6.765625 6.90625q4.296875 2.515625 9.90625 2.515625q3.359375 0 6.765625 -1.171875q3.40625 -1.171875 5.453125 -2.9375q1.03125 -0.84375 2.328125 -0.890625q1.3125 -0.046875 2.25 0.703125q1.21875 1.125 1.265625 2.4375q0.046875 1.296875 -1.078125 2.234375q-3.078125 2.609375 -7.84375 4.34375q-4.75 1.71875 -9.140625 1.71875zm45.162918 -0.46875q-3.734375 0 -6.671875 -2.046875q-2.9375 -2.0625 -4.578125 -5.703125q-1.625 -3.640625 -1.625 -8.390625l0 -53.203125q0 -1.578125 0.984375 -2.5625q0.984375 -0.984375 2.5625 -0.984375q1.59375 0 2.5625 0.984375q0.984375 0.984375 0.984375 2.5625l0 53.203125q0 4.015625 1.625 6.53125q1.640625 2.515625 4.15625 2.515625l2.34375 0q1.390625 0 2.234375 0.984375q0.84375 0.96875 0.84375 2.5625q0 1.59375 -1.171875 2.578125q-1.171875 0.96875 -3.03125 0.96875l-1.21875 0zm35.65918 0.46875q-7.5625 0 -13.40625 -3.3125q-5.828125 -3.3125 -9.140625 -9.1875q-3.3125 -5.890625 -3.3125 -13.453125q0 -7.640625 3.125 -13.46875q3.140625 -5.84375 8.640625 -9.203125q5.5 -3.359375 12.6875 -3.359375q7.09375 0 12.359375 3.21875q5.28125 3.21875 8.171875 8.921875q2.90625 5.6875 2.90625 12.96875q0 1.484375 -0.9375 2.375q-0.9375 0.890625 -2.4375 0.890625l-39.65625 0l0 -5.984375l40.40625 0l-4.015625 2.90625q0.09375 -5.421875 -1.953125 -9.703125q-2.046875 -4.296875 -5.828125 -6.71875q-3.78125 -2.4375 -9.015625 -2.4375q-5.3125 0 -9.328125 2.53125q-4.015625 2.515625 -6.21875 6.953125q-2.1875 4.421875 -2.1875 10.109375q0 5.703125 2.46875 10.09375q2.484375 4.375 6.765625 6.90625q4.296875 2.515625 9.90625 2.515625q3.359375 0 6.765625 -1.171875q3.40625 -1.171875 5.453125 -2.9375q1.03125 -0.84375 2.328125 -0.890625q1.3125 -0.046875 2.25 0.703125q1.21875 1.125 1.265625 2.4375q0.046875 1.296875 -1.078125 2.234375q-3.078125 2.609375 -7.84375 4.34375q-4.75 1.71875 -9.140625 1.71875zm54.780624 0q-7.1875 0 -12.890625 -3.40625q-5.6875 -3.40625 -9.0 -9.28125q-3.3125 -5.890625 -3.3125 -13.265625q0 -7.453125 3.40625 -13.328125q3.40625 -5.890625 9.28125 -9.296875q5.890625 -3.40625 13.265625 -3.40625q7.375 0 13.203125 3.40625q5.828125 3.40625 9.234375 9.296875q3.40625 5.875 3.5 13.328125l-2.890625 2.25q0 6.71875 -3.125 12.09375q-3.125 5.359375 -8.5 8.484375q-5.359375 3.125 -12.171875 3.125zm0.75 -6.53125q5.40625 0 9.65625 -2.515625q4.25 -2.53125 6.71875 -6.953125q2.46875 -4.4375 2.46875 -9.953125q0 -5.59375 -2.46875 -9.96875q-2.46875 -4.390625 -6.71875 -6.953125q-4.25 -2.578125 -9.65625 -2.578125q-5.328125 0 -9.625 2.578125q-4.28125 2.5625 -6.8125 6.953125q-2.515625 4.375 -2.515625 9.96875q0 5.515625 2.515625 9.953125q2.53125 4.421875 6.8125 6.953125q4.296875 2.515625 9.625 2.515625zm22.296875 6.0625q-1.578125 0 -2.609375 -0.96875q-1.03125 -0.984375 -1.03125 -2.578125l0 -15.953125l1.78125 -7.375l5.5 1.390625l0 21.9375q0 1.59375 -1.03125 2.578125q-1.015625 0.96875 -2.609375 0.96875z" fill-rule="nonzero"/><path fill="#ffffff" d="m298.53592 112.098526q-5.5 0 -9.828125 -2.59375q-4.3125 -2.609375 -6.8125 -7.125q-2.484375 -4.53125 -2.484375 -10.359375l0 -50.84375q0 -1.78125 1.078125 -2.921875q1.09375 -1.140625 2.875 -1.140625q1.765625 0 2.90625 1.140625q1.140625 1.140625 1.140625 2.921875l0 50.84375q0 5.3125 3.125 8.6875q3.125 3.375 8.0 3.375l2.8125 0q1.671875 0 2.703125 1.15625q1.046875 1.140625 1.046875 2.90625q0 1.765625 -1.25 2.859375q-1.25 1.09375 -3.125 1.09375l-2.1875 0zm-25.890625 -47.84375q-1.5625 0 -2.609375 -0.984375q-1.03125 -0.984375 -1.03125 -2.4375q0 -1.5625 1.03125 -2.546875q1.046875 -1.0 2.609375 -1.0l26.515625 0q1.5625 0 2.59375 1.0q1.046875 0.984375 1.046875 2.546875q0 1.453125 -1.046875 2.4375q-1.03125 0.984375 -2.59375 0.984375l-26.515625 0z" fill-rule="nonzero"/><path fill="#ffffff" d="m283.88977 88.32076c0.20779419 -9.964584 -1.6706238 -47.457157 1.2467041 -59.787525c2.917328 -12.330366 13.547699 -11.828894 16.257233 -14.194672" fill-rule="evenodd"/><path stroke="#ffffff" stroke-width="8.0" stroke-linejoin="round" stroke-linecap="butt" d="m283.88977 88.32076c0.20779419 -9.964584 -1.6706238 -47.457157 1.2467041 -59.787525c2.917328 -12.330366 13.547699 -11.828894 16.257233 -14.194672" fill-rule="evenodd"/><path fill="#ffffff" d="m280.4113 36.360054c1.3387451 -3.954422 1.4483643 -17.982601 8.032593 -23.72652c6.584259 -5.74392 26.227386 -8.947498 31.47287 -10.736999" fill-rule="evenodd"/><path stroke="#ffffff" stroke-width="1.0" stroke-linejoin="round" stroke-linecap="butt" d="m280.4113 36.360054c1.3387451 -3.954422 1.4483643 -17.982601 8.032593 -23.72652c6.584259 -5.74392 26.227386 -8.947498 31.47287 -10.736999" fill-rule="evenodd"/><path fill="#ffffff" d="m319.87564 1.3393761c-1.9935608 5.1357217 -5.3774414 25.077705 -11.961395 30.81433c-6.583954 5.736622 -22.951996 3.0045128 -27.542389 3.6054153" fill-rule="evenodd"/><path stroke="#ffffff" stroke-width="1.0" stroke-linejoin="round" stroke-linecap="butt" d="m319.87564 1.3393761c-1.9935608 5.1357217 -5.3774414 25.077705 -11.961395 30.81433c-6.583954 5.736622 -22.951996 3.0045128 -27.542389 3.6054153" fill-rule="evenodd"/></g></svg>